<svg xmlns="http://www.w3.org/2000/svg" xmlns:xlink="http://www.w3.org/1999/xlink" preserveAspectRatio="xMidYMid" width="63" height="82.031" viewBox="0 0 63 82.031">
  <defs>
    <style>
      .cls-1 {
        fill: #2196f3;
        fill-rule: evenodd;
      }
    </style>
  </defs>
  <path d="M45.817,74.657 C41.480,78.060 36.795,80.521 31.890,81.975 C31.761,82.013 31.631,82.032 31.500,82.032 C31.368,82.032 31.237,82.013 31.109,81.975 C26.205,80.523 21.520,78.060 17.182,74.657 C6.423,66.216 -0.000,52.658 -0.000,38.392 L-0.000,12.295 C-0.000,11.540 0.613,10.928 1.369,10.928 C21.495,10.928 30.360,0.585 30.448,0.481 C30.967,-0.142 32.030,-0.143 32.550,0.479 C32.678,0.628 41.640,10.929 61.630,10.929 C62.388,10.929 63.000,11.541 63.000,12.296 L63.000,38.392 C63.000,52.658 56.577,66.214 45.817,74.657 ZM60.261,13.649 C43.494,13.277 34.424,6.133 31.500,3.332 C28.576,6.132 19.505,13.277 2.739,13.649 L2.739,38.393 C2.739,51.827 8.770,64.581 18.875,72.509 C22.824,75.607 27.069,77.870 31.500,79.237 C35.930,77.869 40.176,75.607 44.124,72.509 C54.229,64.580 60.261,51.827 60.261,38.393 L60.261,13.649 ZM32.271,73.129 C32.041,73.286 31.771,73.367 31.500,73.367 C31.331,73.367 31.161,73.336 31.000,73.273 C27.970,72.086 25.030,70.383 22.261,68.209 C13.467,61.310 8.217,50.164 8.217,38.395 L8.217,19.994 C8.217,19.306 8.729,18.724 9.414,18.637 C19.550,17.346 26.601,13.736 30.730,10.934 C31.151,10.651 31.694,10.621 32.141,10.857 C32.589,11.094 32.869,11.558 32.869,12.065 L32.869,72.000 C32.869,72.451 32.645,72.873 32.271,73.129 ZM30.130,14.556 C25.822,17.120 19.454,19.929 10.956,21.184 L10.956,38.393 C10.956,49.331 15.816,59.673 23.953,66.058 C25.935,67.613 28.006,68.907 30.130,69.916 L30.130,14.556 Z" class="cls-1"/>
</svg>
