<?xml version="1.0" encoding="UTF-8"?>
<!DOCTYPE svg PUBLIC "-//W3C//DTD SVG 1.1//EN" "http://www.w3.org/Graphics/SVG/1.1/DTD/svg11.dtd">
<!-- Creator: CorelDRAW X6 -->
<svg xmlns="http://www.w3.org/2000/svg" xml:space="preserve" width="15mm" height="15mm" version="1.1" style="shape-rendering:geometricPrecision; text-rendering:geometricPrecision; image-rendering:optimizeQuality; fill-rule:evenodd; clip-rule:evenodd"
viewBox="0 0 1500 1500"
 xmlns:xlink="http://www.w3.org/1999/xlink">
 <defs>
  <style type="text/css">
   <![CDATA[
    .fil0 {fill:#1F1B20}
   ]]>
  </style>
 </defs>
 <g id="Слой_x0020_1">
  <metadata id="CorelCorpID_0Corel-Layer"/>
  <path class="fil0" d="M706 622l0 -92c0,-9 1,-17 3,-26 1,-9 4,-17 8,-24 5,-8 11,-14 21,-18 4,-2 8,-3 13,-4 5,-1 9,-2 13,-2 3,0 6,0 7,0 3,0 9,0 16,1 7,1 14,4 21,9 8,7 13,16 16,26 2,10 4,20 4,31l0 89c0,9 -1,18 -2,26 -1,9 -3,17 -7,26 -4,10 -10,19 -17,27 -6,9 -13,17 -21,25 -8,7 -15,15 -23,22 -5,7 -11,13 -18,19 -6,6 -12,11 -18,17 -16,16 -31,31 -46,46 -14,15 -27,30 -40,47 -12,16 -23,34 -33,55 -10,21 -18,43 -24,64 -5,21 -9,42 -11,64 -2,21 -4,44 -5,67l0 18 407 0 0 -116 -257 0c1,-7 1,-12 1,-16 1,-3 1,-7 2,-9 1,-3 2,-7 3,-11 5,-15 13,-30 23,-44 10,-13 21,-26 33,-39 12,-12 23,-23 35,-34 25,-25 47,-47 67,-68 19,-20 35,-38 48,-55 12,-16 21,-32 26,-48 2,-6 4,-13 5,-19 2,-6 3,-13 4,-22 0,-8 1,-19 2,-32l0 -102c-1,-2 -1,-8 -2,-16 -1,-8 -3,-18 -5,-29 -2,-11 -5,-22 -8,-32 -9,-18 -19,-33 -33,-45 -13,-11 -28,-20 -43,-27 -16,-6 -31,-11 -45,-13 -15,-3 -28,-4 -38,-5 -11,0 -18,-1 -21,0 -6,-1 -14,0 -25,0 -11,1 -24,3 -39,6 -14,3 -29,9 -44,16 -15,8 -29,19 -42,32 -11,12 -18,24 -24,37 -5,13 -9,26 -11,40 -2,14 -3,29 -2,44l0 94 126 0z"/>
  <path class="fil0" d="M754 124c-341,0 -619,278 -619,620 0,341 278,619 619,619 342,0 620,-278 620,-619 0,-342 -278,-620 -620,-620l0 0zm0 1351c-403,0 -731,-328 -731,-731 0,-403 328,-732 731,-732 404,0 732,329 732,732 0,403 -328,731 -732,731l0 0z"/>
 </g>
</svg>
