<svg xmlns="http://www.w3.org/2000/svg" xmlns:xlink="http://www.w3.org/1999/xlink" preserveAspectRatio="xMidYMid" width="80" height="63" viewBox="0 0 80 63">
  <defs>
    <style>
      .cls-1 {
        fill: #2196f3;
        fill-rule: evenodd;
      }
    </style>
  </defs>
  <path d="M76.075,18.647 L67.975,18.647 L67.975,59.051 C67.975,59.529 67.707,59.965 67.282,60.178 L61.938,62.866 C61.585,63.044 61.171,63.044 60.818,62.866 L56.027,60.460 L51.236,62.866 C51.060,62.955 50.868,62.999 50.677,62.999 C50.485,62.999 50.293,62.955 50.117,62.866 L45.330,60.460 L40.548,62.866 C40.195,63.044 39.780,63.044 39.427,62.866 L34.646,60.460 L29.864,62.866 C29.511,63.044 29.096,63.044 28.743,62.866 L23.961,60.460 L19.178,62.866 C18.825,63.044 18.410,63.044 18.057,62.866 L12.717,60.178 C12.293,59.965 12.025,59.528 12.025,59.051 L12.025,18.647 L3.925,18.647 C1.760,18.647 -0.000,16.876 -0.000,14.699 L-0.000,3.947 C-0.000,1.770 1.760,-0.001 3.925,-0.001 L76.075,-0.001 C78.239,-0.001 80.000,1.770 80.000,3.947 L80.000,14.699 C80.000,16.876 78.239,18.647 76.075,18.647 ZM14.530,58.272 L18.618,60.330 L23.401,57.925 C23.753,57.747 24.168,57.747 24.521,57.925 L29.304,60.330 L34.086,57.925 C34.439,57.747 34.854,57.747 35.207,57.925 L39.988,60.330 L44.769,57.925 C45.122,57.747 45.537,57.747 45.890,57.925 L50.677,60.331 L55.467,57.924 C55.820,57.747 56.235,57.747 56.587,57.924 L61.377,60.331 L65.469,58.272 L65.470,58.272 L65.470,10.583 L14.530,10.583 L14.530,58.272 ZM77.494,3.947 C77.494,3.160 76.858,2.519 76.075,2.519 L3.925,2.519 C3.142,2.519 2.505,3.160 2.505,3.947 L2.505,14.699 C2.505,15.487 3.142,16.127 3.925,16.127 L12.025,16.127 L12.025,10.583 L9.269,10.583 C8.577,10.583 8.017,10.019 8.017,9.323 C8.017,8.628 8.577,8.063 9.269,8.063 L70.730,8.063 C71.422,8.063 71.983,8.628 71.983,9.323 C71.983,10.019 71.422,10.583 70.730,10.583 L67.975,10.583 L67.975,16.127 L76.075,16.127 C76.858,16.127 77.494,15.487 77.494,14.699 L77.494,3.947 ZM57.369,37.463 L54.697,37.463 C54.005,37.463 53.444,36.900 53.444,36.204 C53.444,35.507 54.005,34.943 54.697,34.943 L57.369,34.943 C58.061,34.943 58.622,35.507 58.622,36.204 C58.622,36.900 58.061,37.463 57.369,37.463 ZM57.369,30.743 L52.025,30.743 C51.333,30.743 50.772,30.180 50.772,29.483 C50.772,28.787 51.333,28.223 52.025,28.223 L57.369,28.223 C58.061,28.223 58.622,28.787 58.622,29.483 C58.622,30.180 58.061,30.743 57.369,30.743 ZM57.369,24.024 L52.025,24.024 C51.333,24.024 50.772,23.459 50.772,22.763 C50.772,22.067 51.333,21.503 52.025,21.503 L57.369,21.503 C58.061,21.503 58.622,22.067 58.622,22.763 C58.622,23.459 58.061,24.024 57.369,24.024 ZM49.353,37.463 L46.680,37.463 C45.988,37.463 45.428,36.900 45.428,36.204 C45.428,35.507 45.989,34.943 46.680,34.943 L49.353,34.943 C50.044,34.943 50.605,35.507 50.605,36.204 C50.605,36.900 50.044,37.463 49.353,37.463 ZM49.353,17.304 L22.630,17.304 C21.938,17.304 21.378,16.739 21.378,16.043 C21.378,15.347 21.938,14.783 22.630,14.783 L49.353,14.783 C50.044,14.783 50.605,15.347 50.605,16.043 C50.605,16.739 50.044,17.304 49.353,17.304 ZM22.630,21.503 L38.664,21.503 C39.355,21.503 39.916,22.067 39.916,22.763 C39.916,23.459 39.355,24.024 38.664,24.024 L22.630,24.024 C21.938,24.024 21.378,23.459 21.378,22.763 C21.378,22.067 21.938,21.503 22.630,21.503 ZM22.630,28.223 L38.664,28.223 C39.355,28.223 39.916,28.787 39.916,29.483 C39.916,30.180 39.355,30.743 38.664,30.743 L22.630,30.743 C21.938,30.743 21.378,30.180 21.378,29.483 C21.378,28.787 21.938,28.223 22.630,28.223 ZM22.630,34.943 L25.302,34.943 C25.994,34.943 26.555,35.507 26.555,36.204 C26.555,36.900 25.994,37.463 25.302,37.463 L22.630,37.463 C21.938,37.463 21.378,36.900 21.378,36.204 C21.378,35.507 21.938,34.943 22.630,34.943 ZM30.647,37.463 C29.955,37.463 29.394,36.900 29.394,36.204 C29.394,35.507 29.955,34.943 30.647,34.943 L33.319,34.943 C34.011,34.943 34.572,35.507 34.572,36.204 C34.572,36.900 34.011,37.463 33.319,37.463 L30.647,37.463 ZM38.664,37.463 C37.972,37.463 37.411,36.900 37.411,36.204 C37.411,35.507 37.972,34.943 38.664,34.943 L41.336,34.943 C42.028,34.943 42.589,35.507 42.589,36.204 C42.589,36.900 42.028,37.463 41.336,37.463 L38.664,37.463 ZM46.680,24.024 L44.008,24.024 C43.316,24.024 42.756,23.459 42.756,22.763 C42.756,22.067 43.316,21.503 44.008,21.503 L46.680,21.503 C47.372,21.503 47.933,22.067 47.933,22.763 C47.933,23.459 47.372,24.024 46.680,24.024 ZM46.680,30.743 L44.008,30.743 C43.316,30.743 42.756,30.180 42.756,29.483 C42.756,28.787 43.316,28.223 44.008,28.223 L46.680,28.223 C47.372,28.223 47.933,28.787 47.933,29.483 C47.933,30.180 47.372,30.743 46.680,30.743 ZM27.975,41.663 L52.025,41.663 C52.717,41.663 53.277,42.228 53.277,42.923 C53.277,43.619 52.716,44.184 52.025,44.184 L27.975,44.184 C27.283,44.184 26.722,43.619 26.722,42.923 C26.722,42.228 27.283,41.663 27.975,41.663 ZM33.319,48.383 L46.680,48.383 C47.372,48.383 47.933,48.947 47.933,49.643 C47.933,50.339 47.372,50.903 46.680,50.903 L33.319,50.903 C32.627,50.903 32.067,50.339 32.067,49.643 C32.067,48.947 32.628,48.383 33.319,48.383 Z" class="cls-1"/>
</svg>
