<svg xmlns="http://www.w3.org/2000/svg" xmlns:xlink="http://www.w3.org/1999/xlink" preserveAspectRatio="xMidYMid" width="87" height="76" viewBox="0 0 87 76">
  <defs>
    <style>
      .cls-1 {
        fill: #2196f3;
        fill-rule: evenodd;
      }
    </style>
  </defs>
  <path d="M85.015,54.891 C82.912,61.378 78.119,70.282 67.229,75.859 C67.047,75.953 66.847,75.999 66.648,75.999 C66.438,75.999 66.229,75.948 66.039,75.845 C55.177,69.951 50.394,61.074 48.295,54.665 C46.023,47.732 46.316,42.236 46.329,42.006 C46.361,41.466 46.731,41.005 47.251,40.857 L66.305,35.415 C66.534,35.350 66.776,35.350 67.005,35.415 L86.059,40.857 C86.581,41.006 86.951,41.467 86.981,42.008 C86.995,42.245 87.286,47.885 85.015,54.891 ZM66.655,37.963 L48.863,43.044 C48.882,44.815 49.119,49.039 50.748,53.968 C53.533,62.393 58.886,68.888 66.665,73.281 C70.871,71.028 74.410,68.061 77.194,64.456 C79.528,61.432 81.344,57.951 82.590,54.107 C84.207,49.119 84.434,44.833 84.449,43.044 L66.655,37.963 ZM67.400,69.496 C67.190,69.630 66.952,69.696 66.713,69.696 C66.467,69.696 66.222,69.626 66.009,69.484 C55.329,62.410 52.625,51.910 51.963,46.281 C51.890,45.661 52.278,45.080 52.878,44.909 L66.305,41.074 C66.534,41.009 66.777,41.009 67.006,41.074 L80.433,44.909 C81.032,45.080 81.419,45.659 81.349,46.277 C80.690,52.043 78.002,62.727 67.400,69.496 ZM66.655,43.622 L54.639,47.053 C55.439,52.286 58.094,60.829 66.725,66.891 C75.264,61.077 77.887,52.398 78.677,47.055 L66.655,43.622 ZM66.655,32.471 C65.951,32.471 65.381,31.901 65.381,31.198 L65.381,5.353 C65.381,3.805 64.119,2.545 62.569,2.545 L5.361,2.545 C3.810,2.545 2.549,3.805 2.549,5.353 L2.549,43.440 C2.549,44.989 3.810,46.248 5.361,46.248 L42.138,46.248 C42.842,46.248 43.412,46.818 43.412,47.521 C43.412,48.224 42.842,48.794 42.138,48.794 L5.361,48.794 C2.405,48.794 -0.000,46.392 -0.000,43.440 L-0.000,5.353 C-0.000,2.401 2.405,-0.001 5.361,-0.001 L62.569,-0.001 C65.525,-0.001 67.930,2.401 67.930,5.353 L67.930,31.198 C67.930,31.901 67.359,32.471 66.655,32.471 ZM17.620,29.926 C18.324,29.926 18.894,30.495 18.894,31.198 C18.894,31.901 18.324,32.471 17.620,32.471 L9.447,32.471 C8.743,32.471 8.173,31.901 8.173,31.198 C8.173,30.495 8.743,29.926 9.447,29.926 L17.620,29.926 ZM8.173,18.956 C8.173,16.754 9.966,14.962 12.171,14.962 L17.619,14.962 C19.824,14.962 21.618,16.754 21.618,18.956 L21.618,21.677 C21.618,23.878 19.824,25.670 17.619,25.670 L12.171,25.670 C9.966,25.670 8.173,23.878 8.173,21.677 L8.173,18.956 ZM16.170,23.124 L17.620,23.124 C18.419,23.124 19.069,22.475 19.069,21.676 L19.069,18.956 C19.069,18.157 18.419,17.508 17.620,17.508 L16.170,17.508 L16.170,23.124 ZM10.721,21.676 C10.721,22.474 11.372,23.124 12.171,23.124 L13.621,23.124 L13.621,17.508 L12.171,17.508 C11.372,17.508 10.721,18.157 10.721,18.956 L10.721,21.676 ZM23.068,32.471 C22.364,32.471 21.793,31.901 21.793,31.198 C21.793,30.495 22.364,29.926 23.068,29.926 L31.240,29.926 C31.944,29.926 32.515,30.495 32.515,31.198 C32.515,31.901 31.944,32.471 31.240,32.471 L23.068,32.471 ZM37.963,38.000 C37.963,38.702 37.393,39.272 36.689,39.272 L9.447,39.272 C8.743,39.272 8.173,38.702 8.173,38.000 C8.173,37.297 8.743,36.727 9.447,36.727 L36.689,36.727 C37.393,36.727 37.963,37.297 37.963,38.000 ZM58.483,29.926 C59.187,29.926 59.757,30.495 59.757,31.198 C59.757,31.901 59.187,32.471 58.483,32.471 L50.310,32.471 C49.606,32.471 49.036,31.901 49.036,31.198 C49.036,30.495 49.606,29.926 50.310,29.926 L58.483,29.926 ZM47.586,18.800 C46.363,20.488 44.377,21.588 42.137,21.588 C38.430,21.588 35.414,18.577 35.414,14.875 C35.414,11.173 38.430,8.161 42.137,8.161 C44.377,8.161 46.363,9.262 47.586,10.949 C48.808,9.262 50.794,8.161 53.034,8.161 C56.741,8.161 59.757,11.173 59.757,14.875 C59.757,18.577 56.741,21.588 53.034,21.588 C50.794,21.588 48.808,20.488 47.586,18.800 ZM42.137,10.706 C39.836,10.706 37.963,12.576 37.963,14.875 C37.963,17.173 39.836,19.043 42.137,19.043 C44.439,19.043 46.311,17.173 46.311,14.875 C46.311,12.576 44.439,10.706 42.137,10.706 ZM53.034,19.043 C55.336,19.043 57.208,17.173 57.208,14.875 C57.208,12.576 55.336,10.706 53.034,10.706 C50.733,10.706 48.860,12.576 48.860,14.875 C48.860,17.173 50.733,19.043 53.034,19.043 ZM35.415,31.198 C35.415,30.495 35.985,29.926 36.689,29.926 L44.862,29.926 C45.566,29.926 46.136,30.495 46.136,31.198 C46.136,31.901 45.566,32.471 44.862,32.471 L36.689,32.471 C35.985,32.471 35.415,31.901 35.415,31.198 Z" class="cls-1"/>
</svg>
