<svg xmlns="http://www.w3.org/2000/svg" xmlns:xlink="http://www.w3.org/1999/xlink" preserveAspectRatio="xMidYMid" width="80" height="73" viewBox="0 0 80 73">
  <defs>
    <style>
      .cls-1 {
        fill: #2196f3;
        fill-rule: evenodd;
      }
    </style>
  </defs>
  <path d="M75.510,72.999 L16.734,72.999 C14.259,72.999 12.245,70.980 12.245,68.498 L12.245,34.126 C12.245,31.644 14.259,29.625 16.734,29.625 L75.510,29.625 C77.986,29.625 80.000,31.644 80.000,34.126 L80.000,68.498 C80.000,70.980 77.986,72.999 75.510,72.999 ZM77.551,68.498 L77.551,34.126 C77.551,32.998 76.635,32.080 75.510,32.080 L16.734,32.080 C15.609,32.080 14.694,32.997 14.694,34.126 L14.694,68.498 C14.694,69.626 15.609,70.544 16.734,70.544 L75.510,70.544 C76.635,70.544 77.551,69.626 77.551,68.498 L77.551,68.498 ZM69.795,68.089 C68.840,68.089 67.911,67.830 67.100,67.351 C66.311,67.819 65.390,68.089 64.408,68.089 C61.482,68.089 59.102,65.702 59.102,62.769 C59.102,59.836 61.482,57.450 64.408,57.450 C65.390,57.450 66.311,57.720 67.100,58.189 C67.911,57.708 68.840,57.450 69.795,57.450 C72.721,57.450 75.101,59.836 75.101,62.769 C75.101,65.702 72.721,68.089 69.795,68.089 ZM64.408,59.905 C62.833,59.905 61.551,61.190 61.551,62.769 C61.551,64.349 62.833,65.634 64.408,65.634 C65.983,65.634 67.265,64.349 67.265,62.769 C67.265,61.190 65.983,59.905 64.408,59.905 ZM69.795,59.905 C69.508,59.905 69.226,59.951 68.957,60.034 C69.437,60.834 69.714,61.770 69.714,62.770 C69.714,63.769 69.437,64.705 68.957,65.505 C69.226,65.588 69.508,65.634 69.795,65.634 C71.370,65.634 72.652,64.349 72.652,62.770 C72.652,61.190 71.370,59.905 69.795,59.905 ZM67.347,45.747 L72.245,45.747 L72.245,48.202 L67.347,48.202 L67.347,45.747 ZM37.959,45.747 L64.081,45.747 L64.081,48.202 L37.959,48.202 L37.959,45.747 ZM18.775,45.747 L35.102,45.747 L35.102,56.877 L18.775,56.877 L18.775,45.747 ZM21.224,54.422 L32.653,54.422 L32.653,48.202 L21.224,48.202 L21.224,54.422 ZM24.734,49.675 L29.143,49.675 L29.143,52.948 L24.734,52.948 L24.734,49.675 ZM55.918,53.113 L37.959,53.113 L37.959,50.657 L55.918,50.657 L55.918,53.113 ZM65.306,23.732 L2.449,23.732 L2.449,38.872 C2.449,40.001 3.364,40.918 4.490,40.918 L10.204,40.918 L10.204,43.374 L4.490,43.374 C2.014,43.374 -0.000,41.355 -0.000,38.872 L-0.000,4.500 C-0.000,2.018 2.014,-0.001 4.490,-0.001 L63.265,-0.001 C65.741,-0.001 67.755,2.018 67.755,4.500 L67.755,27.579 L65.306,27.579 L65.306,23.732 ZM65.306,4.500 C65.306,3.372 64.390,2.455 63.265,2.455 L4.489,2.455 C3.364,2.455 2.449,3.372 2.449,4.500 L2.449,11.457 L65.306,11.457 L65.306,4.500 ZM65.306,13.912 L2.449,13.912 L2.449,21.277 L65.306,21.277 L65.306,13.912 Z" class="cls-1"/>
</svg>
