<?xml version="1.0" encoding="utf-8"?>
<!-- Generator: Adobe Illustrator 19.0.0, SVG Export Plug-In . SVG Version: 6.00 Build 0)  -->
<svg version="1.1" id="Layer_1" xmlns="http://www.w3.org/2000/svg" xmlns:xlink="http://www.w3.org/1999/xlink" x="0px" y="0px"
	 viewBox="0 0 477 272.5" style="enable-background:new 0 0 477 272.5;" xml:space="preserve">
<style type="text/css">
	.st0{fill:#FFFFFF;}
	.st1{fill:#FF8C00;}
</style>
<g>
	<path class="st0" d="M231.1,155h5.4v12.1h3.9l7-12.1h5.9l-8.4,14.2v0.1l8.9,15.5h-6.1l-7.2-13h-3.9v13h-5.4V155z M265.9,162.9
		c6.5,0,11.8,4.7,11.8,11.2c0,6.6-5.2,11.2-11.7,11.2s-11.7-4.6-11.7-11.2C254.2,167.5,259.4,162.9,265.9,162.9z M265.9,180.7
		c3.5,0,6.4-2.7,6.4-6.7c0-3.9-2.9-6.7-6.4-6.7c-3.5,0-6.3,2.7-6.3,6.7C259.6,178,262.4,180.7,265.9,180.7z M281.9,163.4h5.1v16.8
		h6.7v-16.8h5.1v16.8h6.7v-16.8h5.1v21.4h-28.5V163.4z M325.7,162.9c6.1,0,9.5,4.5,9.5,10.1c0,0.7-0.1,1.4-0.2,2.1h-14.7
		c0.3,3.7,3.2,5.7,6.4,5.7c2.2,0,4.4-1,6.1-2.3l2.1,3.8c-2.2,1.9-5.5,3.1-8.6,3.1c-7.1,0-11.5-5.1-11.5-11.2
		C314.8,167.5,319.3,162.9,325.7,162.9z M329.8,171.4c0-2.8-1.9-4.5-4.3-4.5c-2.7,0-4.7,1.8-5.2,4.5H329.8z M337.7,180.3
		c2.6-0.4,4.5-2.6,4.5-10.2v-6.7h15.6v21.4h-5.3v-17.1h-5.2v2.4c0,9.3-2.5,14.7-9.6,14.9V180.3z M373,162.9c6.1,0,9.5,4.5,9.5,10.1
		c0,0.7-0.1,1.4-0.2,2.1h-14.7c0.3,3.7,3.2,5.7,6.4,5.7c2.2,0,4.4-1,6.1-2.3l2.1,3.8c-2.2,1.9-5.5,3.1-8.6,3.1
		c-7.1,0-11.5-5.1-11.5-11.2C362.1,167.5,366.6,162.9,373,162.9z M377.1,171.4c0-2.8-1.9-4.5-4.3-4.5c-2.7,0-4.7,1.8-5.2,4.5H377.1z
		 M386.9,163.4h5.3v8.2h2.6l5.2-8.2h5.9l-6.8,10.2v0.1l7.6,11.1h-6.2l-5.6-8.7h-2.8v8.7h-5.3V163.4z"/>
	<path class="st1" d="M305.8,90.1v50.5c0,0.8-0.6,1.4-1.4,1.4h-10.3c-0.8,0-1.4-0.6-1.4-1.4V90.1c0-0.8,0.6-1.4,1.4-1.4h10.3
		C305.2,88.7,305.8,89.3,305.8,90.1z M386.2,88.7h-11.5c-0.6,0-1.1,0.4-1.3,1l-9.1,29.9l-10-29.9c-0.2-0.6-0.7-0.9-1.3-0.9h-8.1
		c-0.6,0-1.1,0.4-1.3,0.9l-10,29.9l-9.1-29.9c-0.2-0.6-0.7-1-1.3-1h-11.5c-0.4,0-0.9,0.2-1.1,0.6c-0.3,0.4-0.3,0.8-0.2,1.2l17,50.6
		c0.2,0.6,0.7,0.9,1.3,0.9h9.2c0.6,0,1.1-0.4,1.3-0.9l9.9-29.5l9.9,29.5c0.2,0.6,0.7,0.9,1.3,0.9h9.2c0.6,0,1.1-0.4,1.3-0.9l17-50.6
		c0.1-0.4,0.1-0.9-0.2-1.2C387.1,88.9,386.6,88.7,386.2,88.7z M403.6,88.7h-10.3c-0.8,0-1.4,0.6-1.4,1.4v50.5c0,0.8,0.6,1.4,1.4,1.4
		h10.3c0.8,0,1.4-0.6,1.4-1.4V90.1C404.9,89.3,404.3,88.7,403.6,88.7z M286.7,140.2c0.6,0.7,0.1,1.7-0.8,1.7h-12.6
		c-0.5,0-1-0.2-1.3-0.6l-2.1-2.6c-4.4,2.8-9.6,4.5-15.1,4.5c-15.4,0-27.9-12.5-27.9-27.9s12.5-27.9,27.9-27.9
		c15.4,0,27.9,12.5,27.9,27.9c0,5.5-1.6,10.7-4.4,15.1L286.7,140.2z M261.7,129l-5.5-6.7c-0.6-0.7-0.1-1.8,0.8-1.8h11.6
		c0.6-1.6,0.9-3.4,0.9-5.2c0-8.3-6.2-15.5-14.7-15.5c-8.5,0-14.7,7.2-14.7,15.5s6.2,15.4,14.7,15.4
		C257.2,130.8,259.6,130.1,261.7,129z M181.4,164.7c-1.3-0.5-2.4-0.1-2.9,0.8c-0.8,1.4-0.2,4.1,1.3,6.5c1.5,2.4,2.9,3.6,3.9,3.6
		c1,0,1.9-1.2,1.5-4.3C185,169.6,184,165.7,181.4,164.7z M166.2,176c-1.4,0-2.5,0.5-3.2,1.4c-1.8,2.2-1,6.2,1.8,8.6
		c1.2,1.1,3,1.7,4.7,1.7c1.7,0,3.2-0.7,4.1-1.8c1.6-2.2,0.7-5.2-2.4-7.8C169.6,176.7,167.8,176,166.2,176z M131.2,204.9
		c-38,0-68.8-30.8-68.8-68.8c0-38,30.8-68.8,68.8-68.8c38,0,68.8,30.8,68.8,68.8c0,12.9-3.6,25-9.7,35.3c-0.2,0.3-0.7,0.2-0.8-0.2
		c-2.4-16.9-12.7-26.2-27.7-29c-1.3-0.2-1.5-1,0.2-1.2c4.6-0.4,11.1-0.3,14.5,0.3c0.2-1.7,0.3-3.5,0.3-5.3
		c0-25.1-20.4-45.5-45.5-45.5c-25.1,0-45.5,20.4-45.5,45.5c0,25.1,20.4,45.5,45.5,45.5c0.7,0,1.4,0,2.1,0l0,0
		c-0.8-4.4-1-8.9-0.9-12.3c0.1-2.8,0.7-3.2,1.9-1c6.3,10.9,15.3,20.7,32.9,24.6c14.4,3.2,28.8,6.9,44.3,26.6
		c1.4,1.7-0.7,3.5-2.3,2.1c-15.8-14-30.2-18.6-43.3-18.6C151.3,203,141.3,204.9,131.2,204.9z"/>
</g>
</svg>
