<svg xmlns="http://www.w3.org/2000/svg" xmlns:xlink="http://www.w3.org/1999/xlink" preserveAspectRatio="xMidYMid" width="72" height="81" viewBox="0 0 72 81">
  <defs>
    <style>
      .cls-1 {
        fill: #2196f3;
        fill-rule: evenodd;
      }
    </style>
  </defs>
  <path d="M70.706,81.000 L68.980,81.000 C68.265,81.000 67.686,80.421 67.686,79.707 C67.686,78.993 68.265,78.414 68.980,78.414 L69.411,78.414 L69.411,7.755 L68.980,7.755 C68.265,7.755 67.686,7.176 67.686,6.462 C67.686,5.748 68.265,5.170 68.980,5.170 L70.706,5.170 C71.421,5.170 72.000,5.748 72.000,6.462 L72.000,79.707 C72.000,80.421 71.421,81.000 70.706,81.000 ZM63.803,81.000 L48.692,81.000 C47.977,81.000 47.398,80.421 47.398,79.707 C47.398,78.993 47.977,78.414 48.692,78.414 L62.509,78.414 L62.509,7.755 L62.078,7.755 C61.363,7.755 60.784,7.176 60.784,6.462 C60.784,5.748 61.363,5.170 62.078,5.170 L63.803,5.170 C64.518,5.170 65.098,5.748 65.098,6.462 L65.098,79.707 C65.098,80.421 64.518,81.000 63.803,81.000 ZM43.413,80.518 C43.176,80.811 42.813,81.000 42.395,81.000 L1.294,81.000 C0.579,81.000 -0.000,80.421 -0.000,79.707 L-0.000,6.462 C-0.000,5.748 0.579,5.170 1.294,5.170 L5.441,5.170 C6.374,2.156 9.209,-0.001 12.449,-0.001 C15.742,-0.001 18.535,2.179 19.459,5.170 L56.901,5.170 C57.616,5.170 58.195,5.748 58.195,6.462 C58.195,6.462 58.195,65.219 58.195,65.230 C58.195,65.637 58.007,66.000 57.713,66.237 L43.413,80.518 ZM43.700,76.575 L53.765,66.523 L43.700,66.523 L43.700,76.575 ZM12.449,2.585 C10.636,2.585 9.019,3.628 8.224,5.170 L16.674,5.170 C15.887,3.637 14.289,2.585 12.449,2.585 ZM55.607,7.755 L19.783,7.755 L19.783,16.803 C19.783,19.416 17.654,21.542 15.037,21.542 C12.421,21.542 10.292,19.416 10.292,16.803 L10.292,11.632 C10.292,10.919 10.872,10.340 11.586,10.340 C12.301,10.340 12.881,10.919 12.881,11.632 L12.881,16.803 C12.881,17.991 13.848,18.957 15.037,18.957 C16.227,18.957 17.194,17.991 17.194,16.803 L17.194,7.755 L2.588,7.755 L2.588,78.414 L41.112,78.414 L41.112,65.230 C41.112,64.516 41.691,63.938 42.406,63.938 L55.607,63.938 L55.607,7.755 ZM10.353,58.251 C10.353,57.537 10.933,56.958 11.647,56.958 L46.548,56.958 C47.262,56.958 47.842,57.537 47.842,58.251 C47.842,58.964 47.262,59.543 46.548,59.543 L11.647,59.543 C10.933,59.543 10.353,58.964 10.353,58.251 ZM46.548,51.788 L11.647,51.788 C10.933,51.788 10.353,51.209 10.353,50.495 C10.353,49.781 10.933,49.203 11.647,49.203 L46.548,49.203 C47.262,49.203 47.842,49.781 47.842,50.495 C47.842,51.209 47.262,51.788 46.548,51.788 ZM46.548,44.033 L11.647,44.033 C10.933,44.033 10.353,43.454 10.353,42.740 C10.353,42.026 10.933,41.447 11.647,41.447 L46.548,41.447 C47.262,41.447 47.842,42.026 47.842,42.740 C47.842,43.454 47.262,44.033 46.548,44.033 ZM46.548,36.277 L11.647,36.277 C10.933,36.277 10.353,35.699 10.353,34.985 C10.353,34.271 10.933,33.692 11.647,33.692 L46.548,33.692 C47.262,33.692 47.842,34.271 47.842,34.985 C47.842,35.699 47.262,36.277 46.548,36.277 ZM46.548,28.522 L11.647,28.522 C10.933,28.522 10.353,27.943 10.353,27.229 C10.353,26.515 10.933,25.937 11.647,25.937 L46.548,25.937 C47.262,25.937 47.842,26.515 47.842,27.229 C47.842,27.943 47.262,28.522 46.548,28.522 Z" class="cls-1"/>
</svg>
